<?xml version="1.0" standalone="no"?>
<!DOCTYPE svg PUBLIC "-//W3C//DTD SVG 20010904//EN"
 "http://www.w3.org/TR/2001/REC-SVG-20010904/DTD/svg10.dtd">
<svg version="1.0" xmlns="http://www.w3.org/2000/svg"
 width="512.000000pt" height="512.000000pt" viewBox="0 0 512.000000 512.000000"
 preserveAspectRatio="xMidYMid meet">
<metadata>
Created by potrace 1.11, written by Peter Selinger 2001-2013
</metadata>
<g transform="translate(0.000000,512.000000) scale(0.100000,-0.100000)"
fill="#000000" stroke="none">
<path d="M500 2560 l0 -2060 2060 0 2060 0 0 2060 0 2060 -2060 0 -2060 0 0
-2060z m1440 1165 c0 -2 36 -118 81 -257 115 -360 143 -449 179 -568 91 -301
119 -386 201 -620 123 -351 143 -403 154 -407 6 -2 22 30 37 69 15 40 43 116
63 168 61 161 153 436 216 645 59 196 118 385 242 772 l62 192 54 7 c61 8 388
0 397 -9 8 -8 -417 -1280 -534 -1597 -250 -680 -265 -716 -296 -724 -11 -3
-128 -6 -258 -6 -179 0 -239 3 -245 13 -8 13 -37 89 -238 637 -121 329 -565
1639 -565 1666 0 9 20 14 63 17 102 5 387 7 387 2z"/>
</g>
</svg>
